<?xml version="1.0" encoding="UTF-8" standalone="no"?><svg xmlns="http://www.w3.org/2000/svg" xmlns:xlink="http://www.w3.org/1999/xlink" contentStyleType="text/css" height="300px" preserveAspectRatio="none" style="width:441px;height:300px;background:#FFFFFF;" version="1.1" viewBox="0 0 441 300" width="441px" zoomAndPan="magnify"><defs/><g><!--MD5=[ea844a1fc3570c7b8aea9cc83cef3d60]
cluster mln.io--><g id="cluster_mln.io"><path d="M8.5,129 L56.5,129 A3.75,3.75 0 0 1 59,131.5 L66,151.2969 L431.5,151.2969 A2.5,2.5 0 0 1 434,153.7969 L434,290.5 A2.5,2.5 0 0 1 431.5,293 L8.5,293 A2.5,2.5 0 0 1 6,290.5 L6,131.5 A2.5,2.5 0 0 1 8.5,129 " fill="none" style="stroke:#000000;stroke-width:1.5;"/><line style="stroke:#000000;stroke-width:1.5;" x1="6" x2="66" y1="151.2969" y2="151.2969"/><text fill="#000000" font-family="sans-serif" font-size="14" font-weight="bold" lengthAdjust="spacing" textLength="47" x="10" y="143.9951">mln.io</text></g><!--MD5=[c3e3c9970ac48f7d084cf9b93a3030e6]
cluster mln--><g id="cluster_mln"><path d="M171.5,6 L200.5,6 A3.75,3.75 0 0 1 203,8.5 L210,28.2969 L268.5,28.2969 A2.5,2.5 0 0 1 271,30.7969 L271,102.5 A2.5,2.5 0 0 1 268.5,105 L171.5,105 A2.5,2.5 0 0 1 169,102.5 L169,8.5 A2.5,2.5 0 0 1 171.5,6 " fill="none" style="stroke:#000000;stroke-width:1.5;"/><line style="stroke:#000000;stroke-width:1.5;" x1="169" x2="210" y1="28.2969" y2="28.2969"/><text fill="#000000" font-family="sans-serif" font-size="14" font-weight="bold" lengthAdjust="spacing" textLength="28" x="173" y="20.9951">mln</text></g><!--MD5=[4d63dd394b3fee0d8d42ee53dbef628d]
class mln.io.BrokersRegister--><g id="elem_mln.io.BrokersRegister"><rect codeLine="2" fill="#F1F1F1" height="113.1875" id="mln.io.BrokersRegister" rx="2.5" ry="2.5" style="stroke:#181818;stroke-width:0.5;" width="395" x="22.5" y="164"/><ellipse cx="159.75" cy="180" fill="#ADD1B2" rx="11" ry="11" style="stroke:#181818;stroke-width:1.0;"/><path d="M162.7188,185.6406 Q162.1406,185.9375 161.5,186.0781 Q160.8594,186.2344 160.1563,186.2344 Q157.6563,186.2344 156.3281,184.5938 Q155.0156,182.9375 155.0156,179.8125 Q155.0156,176.6875 156.3281,175.0313 Q157.6563,173.375 160.1563,173.375 Q160.8594,173.375 161.5,173.5313 Q162.1563,173.6875 162.7188,173.9844 L162.7188,176.7031 Q162.0938,176.125 161.5,175.8594 Q160.9063,175.5781 160.2813,175.5781 Q158.9375,175.5781 158.25,176.6563 Q157.5625,177.7188 157.5625,179.8125 Q157.5625,181.9063 158.25,182.9844 Q158.9375,184.0469 160.2813,184.0469 Q160.9063,184.0469 161.5,183.7813 Q162.0938,183.5 162.7188,182.9219 L162.7188,185.6406 Z " fill="#000000"/><text fill="#000000" font-family="sans-serif" font-size="14" lengthAdjust="spacing" textLength="112" x="180.25" y="184.8467">BrokersRegister</text><line style="stroke:#181818;stroke-width:0.5;" x1="23.5" x2="416.5" y1="196" y2="196"/><rect fill="none" height="6" style="stroke:#C82930;stroke-width:1.0;" width="6" x="30.5" y="206.6484"/><text fill="#000000" font-family="sans-serif" font-size="14" lengthAdjust="spacing" textLength="112" x="42.5" y="212.9951">interval: number</text><rect fill="none" height="6" style="stroke:#C82930;stroke-width:1.0;" width="6" x="30.5" y="222.9453"/><text fill="#000000" font-family="sans-serif" font-size="14" lengthAdjust="spacing" textLength="229" x="42.5" y="229.292">brokers: Map&lt;string, timeoutID&gt;</text><line style="stroke:#181818;stroke-width:0.5;" x1="23.5" x2="416.5" y1="236.5938" y2="236.5938"/><rect fill="#F24D5C" height="6" style="stroke:#C82930;stroke-width:1.0;" width="6" x="30.5" y="247.2422"/><text fill="#000000" font-family="sans-serif" font-size="14" lengthAdjust="spacing" textLength="258" x="42.5" y="253.5889">sendHeartbeat(): Promise&lt;boolean&gt;</text><rect fill="#F24D5C" height="6" style="stroke:#C82930;stroke-width:1.0;" width="6" x="30.5" y="263.5391"/><text fill="#000000" font-family="sans-serif" font-size="14" lengthAdjust="spacing" textLength="369" x="42.5" y="269.8857">processHeartbeat(uid: string, timestamp: string): void</text></g><!--MD5=[9507674483f1e8a836373a582e6b0b3c]
class mln.Node--><g id="elem_mln.Node"><rect fill="#F1F1F1" height="48" id="mln.Node" rx="2.5" ry="2.5" style="stroke:#181818;stroke-width:0.5;" width="69" x="185.5" y="41"/><ellipse cx="200.5" cy="57" fill="#ADD1B2" rx="11" ry="11" style="stroke:#181818;stroke-width:1.0;"/><path d="M203.4688,62.6406 Q202.8906,62.9375 202.25,63.0781 Q201.6094,63.2344 200.9063,63.2344 Q198.4063,63.2344 197.0781,61.5938 Q195.7656,59.9375 195.7656,56.8125 Q195.7656,53.6875 197.0781,52.0313 Q198.4063,50.375 200.9063,50.375 Q201.6094,50.375 202.25,50.5313 Q202.9063,50.6875 203.4688,50.9844 L203.4688,53.7031 Q202.8438,53.125 202.25,52.8594 Q201.6563,52.5781 201.0313,52.5781 Q199.6875,52.5781 199,53.6563 Q198.3125,54.7188 198.3125,56.8125 Q198.3125,58.9063 199,59.9844 Q199.6875,61.0469 201.0313,61.0469 Q201.6563,61.0469 202.25,60.7813 Q202.8438,60.5 203.4688,59.9219 L203.4688,62.6406 Z " fill="#000000"/><text fill="#000000" font-family="sans-serif" font-size="14" lengthAdjust="spacing" textLength="37" x="214.5" y="61.8467">Node</text><line style="stroke:#181818;stroke-width:0.5;" x1="186.5" x2="253.5" y1="73" y2="73"/><line style="stroke:#181818;stroke-width:0.5;" x1="186.5" x2="253.5" y1="81" y2="81"/></g><!--MD5=[df9dd7cf6f201f58b7b5cf2cdaf0bb5d]
reverse link mln.Node to mln.io.BrokersRegister--><g id="link_mln.Node_mln.io.BrokersRegister"><path d="M220,109.57 C220,126.41 220,145.88 220,163.72 " fill="none" id="mln.Node-backto-mln.io.BrokersRegister" style="stroke:#181818;stroke-width:1.0;"/><polygon fill="none" points="213,109.31,220,89.31,227,109.31,213,109.31" style="stroke:#181818;stroke-width:1.0;"/></g><!--MD5=[4b4860ce0c556505f6fdc0257fb1f1f6]
@startuml broker

  class mln.io.BrokersRegister extends mln.Node {
    -interval: number
    -brokers: Map<string, timeoutID>
    -sendHeartbeat(): Promise<boolean>
    -processHeartbeat(uid: string, timestamp: string): void
  }

@enduml

PlantUML version 1.2022.7(Mon Aug 22 10:01:30 PDT 2022)
(GPL source distribution)
Java Runtime: OpenJDK Runtime Environment
JVM: OpenJDK 64-Bit Server VM
Default Encoding: UTF-8
Language: en
Country: US
--></g></svg>