<?xml version="1.0" encoding="UTF-8" standalone="no"?><svg xmlns="http://www.w3.org/2000/svg" xmlns:xlink="http://www.w3.org/1999/xlink" contentStyleType="text/css" height="200px" preserveAspectRatio="none" style="width:344px;height:200px;background:#FFFFFF;" version="1.1" viewBox="0 0 344 200" width="344px" zoomAndPan="magnify"><defs/><g><rect fill="none" height="26.2969" id="_title" style="stroke:none;stroke-width:1.0;" width="212" x="65.5" y="10"/><text fill="#000000" font-family="sans-serif" font-size="14" font-weight="bold" lengthAdjust="spacing" textLength="202" x="70.5" y="27.9951">Internal node registration</text><line style="stroke:#181818;stroke-width:0.5;stroke-dasharray:5.0,5.0;" x1="56" x2="56" y1="73.5938" y2="164.8594"/><line style="stroke:#181818;stroke-width:0.5;stroke-dasharray:5.0,5.0;" x1="242.5" x2="242.5" y1="73.5938" y2="164.8594"/><rect fill="#E2E2F0" height="30.2969" rx="2.5" ry="2.5" style="stroke:#181818;stroke-width:0.5;" width="102" x="5" y="42.2969"/><text fill="#000000" font-family="sans-serif" font-size="14" lengthAdjust="spacing" textLength="88" x="12" y="62.292">InternalNode</text><rect fill="#E2E2F0" height="30.2969" rx="2.5" ry="2.5" style="stroke:#181818;stroke-width:0.5;" width="102" x="5" y="163.8594"/><text fill="#000000" font-family="sans-serif" font-size="14" lengthAdjust="spacing" textLength="88" x="12" y="183.8545">InternalNode</text><rect fill="#E2E2F0" height="30.2969" rx="2.5" ry="2.5" style="stroke:#181818;stroke-width:0.5;" width="73" x="206.5" y="42.2969"/><text fill="#000000" font-family="sans-serif" font-size="14" lengthAdjust="spacing" textLength="59" x="213.5" y="62.292">Gateway</text><rect fill="#E2E2F0" height="30.2969" rx="2.5" ry="2.5" style="stroke:#181818;stroke-width:0.5;" width="73" x="206.5" y="163.8594"/><text fill="#000000" font-family="sans-serif" font-size="14" lengthAdjust="spacing" textLength="59" x="213.5" y="183.8545">Gateway</text><polygon fill="#181818" points="231,100.7266,241,104.7266,231,108.7266,235,104.7266" style="stroke:#181818;stroke-width:1.0;"/><line style="stroke:#181818;stroke-width:1.0;" x1="56" x2="237" y1="104.7266" y2="104.7266"/><text fill="#000000" font-family="sans-serif" font-size="13" lengthAdjust="spacing" textLength="163" x="63" y="99.6606">HTTP(S) GET token.mln.io</text><line style="stroke:#181818;stroke-width:1.0;" x1="243" x2="285" y1="133.8594" y2="133.8594"/><line style="stroke:#181818;stroke-width:1.0;" x1="285" x2="285" y1="133.8594" y2="146.8594"/><line style="stroke:#181818;stroke-width:1.0;" x1="244" x2="285" y1="146.8594" y2="146.8594"/><polygon fill="#181818" points="254,142.8594,244,146.8594,254,150.8594,250,146.8594" style="stroke:#181818;stroke-width:1.0;"/><text fill="#000000" font-family="sans-serif" font-size="13" lengthAdjust="spacing" textLength="87" x="250" y="128.7935">parsing token</text><!--MD5=[3d16180da95c0ab9707931832e1c4ad7]
@startuml internal_register

  title Internal node registration

  InternalNode -> Gateway: HTTP(S) GET token.mln.io
  Gateway -> Gateway: parsing token

@enduml

PlantUML version 1.2022.7(Mon Aug 22 19:01:30 CEST 2022)
(GPL source distribution)
Java Runtime: OpenJDK Runtime Environment
JVM: OpenJDK 64-Bit Server VM
Default Encoding: UTF-8
Language: en
Country: US
--></g></svg>