<?xml version="1.0" encoding="UTF-8" standalone="no"?><svg xmlns="http://www.w3.org/2000/svg" xmlns:xlink="http://www.w3.org/1999/xlink" contentStyleType="text/css" height="1059px" preserveAspectRatio="none" style="width:784px;height:1059px;background:#FFFFFF;" version="1.1" viewBox="0 0 784 1059" width="784px" zoomAndPan="magnify"><defs/><g><!--MD5=[90502ac789e6e8f4328a761d642ed1dd]
cluster external_container--><g id="cluster_external_container"><polygon fill="none" points="23,16,33,6,385,6,385,430,375,440,23,440,23,16" style="stroke:#181818;stroke-width:1.0;"/><line style="stroke:#181818;stroke-width:1.0;" x1="375" x2="385" y1="16" y2="6"/><line style="stroke:#181818;stroke-width:1.0;" x1="23" x2="375" y1="16" y2="16"/><line style="stroke:#181818;stroke-width:1.0;" x1="375" x2="375" y1="16" y2="440"/><text fill="#000000" font-family="sans-serif" font-size="14" font-weight="bold" lengthAdjust="spacing" textLength="144" x="128" y="31.9951">External container</text></g><!--MD5=[0b15e99603e3f98b781e3e80145ac8cb]
cluster external_process--><g id="cluster_external_process"><polygon fill="none" points="47,64,57,54,361,54,361,312,351,322,47,322,47,64" style="stroke:#181818;stroke-width:1.0;"/><line style="stroke:#181818;stroke-width:1.0;" x1="351" x2="361" y1="64" y2="54"/><line style="stroke:#181818;stroke-width:1.0;" x1="47" x2="351" y1="64" y2="64"/><line style="stroke:#181818;stroke-width:1.0;" x1="351" x2="351" y1="64" y2="322"/><text fill="#000000" font-family="sans-serif" font-size="14" font-weight="bold" lengthAdjust="spacing" textLength="238" x="81" y="79.9951">External process (V8 support)</text></g><!--MD5=[75b88bb4cfe799ef20b200cef70d18c5]
cluster external_main_thread--><g id="cluster_external_main_thread"><polygon fill="none" points="168,112,178,102,337,102,337,194,327,204,168,204,168,112" style="stroke:#181818;stroke-width:1.0;"/><line style="stroke:#181818;stroke-width:1.0;" x1="327" x2="337" y1="112" y2="102"/><line style="stroke:#181818;stroke-width:1.0;" x1="168" x2="327" y1="112" y2="112"/><line style="stroke:#181818;stroke-width:1.0;" x1="327" x2="327" y1="112" y2="204"/><text fill="#000000" font-family="sans-serif" font-size="14" font-weight="bold" lengthAdjust="spacing" textLength="93" x="202" y="127.9951">Main thread</text></g><!--MD5=[2a26e9beb0fe89a29b40a0a07da09944]
cluster internal_container--><g id="cluster_internal_container"><polygon fill="none" points="409,16,419,6,767,6,767,430,757,440,409,440,409,16" style="stroke:#181818;stroke-width:1.0;"/><line style="stroke:#181818;stroke-width:1.0;" x1="757" x2="767" y1="16" y2="6"/><line style="stroke:#181818;stroke-width:1.0;" x1="409" x2="757" y1="16" y2="16"/><line style="stroke:#181818;stroke-width:1.0;" x1="757" x2="757" y1="16" y2="440"/><text fill="#000000" font-family="sans-serif" font-size="14" font-weight="bold" lengthAdjust="spacing" textLength="140" x="514" y="31.9951">Internal container</text></g><!--MD5=[3bfacbfd5e694b153dadd2208ae56815]
cluster internal_process--><g id="cluster_internal_process"><polygon fill="none" points="433,64,443,54,743,54,743,312,733,322,433,322,433,64" style="stroke:#181818;stroke-width:1.0;"/><line style="stroke:#181818;stroke-width:1.0;" x1="733" x2="743" y1="64" y2="54"/><line style="stroke:#181818;stroke-width:1.0;" x1="433" x2="733" y1="64" y2="64"/><line style="stroke:#181818;stroke-width:1.0;" x1="733" x2="733" y1="64" y2="322"/><text fill="#000000" font-family="sans-serif" font-size="14" font-weight="bold" lengthAdjust="spacing" textLength="234" x="467" y="79.9951">Internal process (V8 support)</text></g><!--MD5=[27122d6e1036e85b70d64c32cfe723d3]
cluster internal_main_thread--><g id="cluster_internal_main_thread"><polygon fill="none" points="457,112,467,102,626,102,626,194,616,204,457,204,457,112" style="stroke:#181818;stroke-width:1.0;"/><line style="stroke:#181818;stroke-width:1.0;" x1="616" x2="626" y1="112" y2="102"/><line style="stroke:#181818;stroke-width:1.0;" x1="457" x2="616" y1="112" y2="112"/><line style="stroke:#181818;stroke-width:1.0;" x1="616" x2="616" y1="112" y2="204"/><text fill="#000000" font-family="sans-serif" font-size="14" font-weight="bold" lengthAdjust="spacing" textLength="93" x="491" y="127.9951">Main thread</text></g><!--MD5=[07c1df0e34bc278bda61b24a57b41772]
cluster router_container--><g id="cluster_router_container"><polygon fill="none" points="16,560,26,550,548,550,548,1032,538,1042,16,1042,16,560" style="stroke:#181818;stroke-width:1.0;"/><line style="stroke:#181818;stroke-width:1.0;" x1="538" x2="548" y1="560" y2="550"/><line style="stroke:#181818;stroke-width:1.0;" x1="16" x2="538" y1="560" y2="560"/><line style="stroke:#181818;stroke-width:1.0;" x1="538" x2="538" y1="560" y2="1042"/><text fill="#000000" font-family="sans-serif" font-size="14" font-weight="bold" lengthAdjust="spacing" textLength="133" x="211.5" y="575.9951">Router container</text></g><!--MD5=[2df48f385ce2c86355479ebc8f7bc529]
cluster router_process--><g id="cluster_router_process"><polygon fill="none" points="40,678,50,668,524,668,524,1008,514,1018,40,1018,40,678" style="stroke:#181818;stroke-width:1.0;"/><line style="stroke:#181818;stroke-width:1.0;" x1="514" x2="524" y1="678" y2="668"/><line style="stroke:#181818;stroke-width:1.0;" x1="40" x2="514" y1="678" y2="678"/><line style="stroke:#181818;stroke-width:1.0;" x1="514" x2="514" y1="678" y2="1018"/><text fill="#000000" font-family="sans-serif" font-size="14" font-weight="bold" lengthAdjust="spacing" textLength="227" x="164.5" y="693.9951">Router process (V8 support)</text></g><!--MD5=[bb1a86de60ef6d009ac9c757dbd2a8a5]
cluster router_main_thread--><g id="cluster_router_main_thread"><polygon fill="none" points="64,796,74,786,500,786,500,984,490,994,64,994,64,796" style="stroke:#181818;stroke-width:1.0;"/><line style="stroke:#181818;stroke-width:1.0;" x1="490" x2="500" y1="796" y2="786"/><line style="stroke:#181818;stroke-width:1.0;" x1="64" x2="490" y1="796" y2="796"/><line style="stroke:#181818;stroke-width:1.0;" x1="490" x2="490" y1="796" y2="994"/><text fill="#000000" font-family="sans-serif" font-size="14" font-weight="bold" lengthAdjust="spacing" textLength="93" x="231.5" y="811.9951">Main thread</text></g><!--MD5=[e42ec5089d38fbe18d57b22d834c5d6d]
entity external_tcp_ip--><g id="elem_external_tcp_ip"><ellipse cx="273" cy="395" fill="#F1F1F1" rx="8" ry="8" style="stroke:#181818;stroke-width:0.5;"/><text fill="#000000" font-family="sans-serif" font-size="14" lengthAdjust="spacing" textLength="39" x="253.5" y="424.9951">tcp/ip</text></g><!--MD5=[2455982ead69025e00b1c8af5b9f11cd]
entity external_websocket--><g id="elem_external_websocket"><ellipse cx="261" cy="277" fill="#F1F1F1" rx="8" ry="8" style="stroke:#181818;stroke-width:0.5;"/><text fill="#000000" font-family="sans-serif" font-size="14" lengthAdjust="spacing" textLength="59" x="231.5" y="306.9951">ws+http</text></g><!--MD5=[09040b43c3fb57e8baa243bab09a6733]
entity ExternalNode--><g id="elem_ExternalNode"><rect fill="#F1F1F1" height="46.2969" rx="2.5" ry="2.5" style="stroke:#181818;stroke-width:0.5;" width="132" x="189" y="142"/><rect fill="#F1F1F1" height="10" style="stroke:#181818;stroke-width:0.5;" width="15" x="301" y="147"/><rect fill="#F1F1F1" height="2" style="stroke:#181818;stroke-width:0.5;" width="4" x="299" y="149"/><rect fill="#F1F1F1" height="2" style="stroke:#181818;stroke-width:0.5;" width="4" x="299" y="153"/><text fill="#000000" font-family="sans-serif" font-size="14" lengthAdjust="spacing" textLength="92" x="204" y="174.9951">ExternalNode</text></g><!--MD5=[bbf35f625da026bbc215014f0bc224fc]
entity internal_tcp_ip--><g id="elem_internal_tcp_ip"><ellipse cx="469" cy="395" fill="#F1F1F1" rx="8" ry="8" style="stroke:#181818;stroke-width:0.5;"/><text fill="#000000" font-family="sans-serif" font-size="14" lengthAdjust="spacing" textLength="39" x="449.5" y="424.9951">tcp/ip</text></g><!--MD5=[9aaa063eb55701ca349b2085595577ca]
entity internal_websocket--><g id="elem_internal_websocket"><ellipse cx="511" cy="277" fill="#F1F1F1" rx="8" ry="8" style="stroke:#181818;stroke-width:0.5;"/><text fill="#000000" font-family="sans-serif" font-size="14" lengthAdjust="spacing" textLength="59" x="481.5" y="306.9951">ws+http</text></g><!--MD5=[eab5aef66481b5323037137d60784792]
entity InternalNode--><g id="elem_InternalNode"><rect fill="#F1F1F1" height="46.2969" rx="2.5" ry="2.5" style="stroke:#181818;stroke-width:0.5;" width="128" x="473" y="142"/><rect fill="#F1F1F1" height="10" style="stroke:#181818;stroke-width:0.5;" width="15" x="581" y="147"/><rect fill="#F1F1F1" height="2" style="stroke:#181818;stroke-width:0.5;" width="4" x="579" y="149"/><rect fill="#F1F1F1" height="2" style="stroke:#181818;stroke-width:0.5;" width="4" x="579" y="153"/><text fill="#000000" font-family="sans-serif" font-size="14" lengthAdjust="spacing" textLength="88" x="488" y="174.9951">InternalNode</text></g><!--MD5=[0784d171a731a7c73e8b5454180ae1ee]
entity router_tcp_ip--><g id="elem_router_tcp_ip"><ellipse cx="297" cy="619" fill="#F1F1F1" rx="8" ry="8" style="stroke:#181818;stroke-width:0.5;"/><text fill="#000000" font-family="sans-serif" font-size="14" lengthAdjust="spacing" textLength="39" x="277.5" y="648.9951">tcp/ip</text></g><!--MD5=[0773397b9a40cd23fec6442eb5814371]
entity router_websocket--><g id="elem_router_websocket"><ellipse cx="297" cy="737" fill="#F1F1F1" rx="8" ry="8" style="stroke:#181818;stroke-width:0.5;"/><text fill="#000000" font-family="sans-serif" font-size="14" lengthAdjust="spacing" textLength="59" x="267.5" y="766.9951">ws+http</text></g><!--MD5=[953a8c67cfe21abaf9bf45dad8506ca8]
entity Router--><g id="elem_Router"><rect fill="#F1F1F1" height="46.2969" rx="2.5" ry="2.5" style="stroke:#181818;stroke-width:0.5;" width="87" x="253.5" y="826"/><rect fill="#F1F1F1" height="10" style="stroke:#181818;stroke-width:0.5;" width="15" x="320.5" y="831"/><rect fill="#F1F1F1" height="2" style="stroke:#181818;stroke-width:0.5;" width="4" x="318.5" y="833"/><rect fill="#F1F1F1" height="2" style="stroke:#181818;stroke-width:0.5;" width="4" x="318.5" y="837"/><text fill="#000000" font-family="sans-serif" font-size="14" lengthAdjust="spacing" textLength="47" x="268.5" y="858.9951">Router</text></g><!--MD5=[8d5527c947ce00f0e4b2fe7943879121]
entity NodesList--><g id="elem_NodesList"><rect fill="#F1F1F1" height="46.2969" rx="2.5" ry="2.5" style="stroke:#181818;stroke-width:0.5;" width="108" x="376" y="826"/><rect fill="#F1F1F1" height="10" style="stroke:#181818;stroke-width:0.5;" width="15" x="464" y="831"/><rect fill="#F1F1F1" height="2" style="stroke:#181818;stroke-width:0.5;" width="4" x="462" y="833"/><rect fill="#F1F1F1" height="2" style="stroke:#181818;stroke-width:0.5;" width="4" x="462" y="837"/><text fill="#000000" font-family="sans-serif" font-size="14" lengthAdjust="spacing" textLength="68" x="391" y="858.9951">NodesList</text></g><!--MD5=[e5469926205265154796dbe5779b7630]
entity ResourcesList--><g id="elem_ResourcesList"><rect fill="#F1F1F1" height="46.2969" rx="2.5" ry="2.5" style="stroke:#181818;stroke-width:0.5;" width="138" x="80" y="826"/><rect fill="#F1F1F1" height="10" style="stroke:#181818;stroke-width:0.5;" width="15" x="198" y="831"/><rect fill="#F1F1F1" height="2" style="stroke:#181818;stroke-width:0.5;" width="4" x="196" y="833"/><rect fill="#F1F1F1" height="2" style="stroke:#181818;stroke-width:0.5;" width="4" x="196" y="837"/><text fill="#000000" font-family="sans-serif" font-size="14" lengthAdjust="spacing" textLength="98" x="95" y="858.9951">ResourcesList</text></g><!--MD5=[eb1fd25ad17f704f76234179f6502b40]
entity RoutersList--><g id="elem_RoutersList"><rect fill="#F1F1F1" height="46.2969" rx="2.5" ry="2.5" style="stroke:#181818;stroke-width:0.5;" width="118" x="238" y="932"/><rect fill="#F1F1F1" height="10" style="stroke:#181818;stroke-width:0.5;" width="15" x="336" y="937"/><rect fill="#F1F1F1" height="2" style="stroke:#181818;stroke-width:0.5;" width="4" x="334" y="939"/><rect fill="#F1F1F1" height="2" style="stroke:#181818;stroke-width:0.5;" width="4" x="334" y="943"/><text fill="#000000" font-family="sans-serif" font-size="14" lengthAdjust="spacing" textLength="78" x="253" y="964.9951">RoutersList</text></g><!--MD5=[57220784cd10fd02b95ed95124c16164]
entity network--><g id="elem_network"><path d="M263.3098,493.8085 C265.3706,488.3449 270.3303,487.8462 273.6236,492.5596 C277.5176,486.5319 281.7638,486.0603 286.2677,491.9103 C288.1001,484.8767 293.8035,483.0601 298.7497,488.8885 C303.2911,484.49 306.9501,485.9636 308.8751,491.5435 C312.3627,485.2549 318.7083,484.7285 321.9265,491.8066 C325.486,486.8432 329.3153,486.6668 332.5503,492.137 C340.458,495.8406 342.7218,501.2825 336.4436,508.3852 C344.3448,513.9838 342.227,520.4538 334.6486,524.3073 C331.4521,530.1701 327.6734,531.6243 322.6178,526.3081 C319.8465,532.8024 315.6716,533.0608 310.723,528.6924 C308.0486,535.3422 302.8671,536.8702 297.9888,530.9196 C293.6131,535.4244 288.1783,534.7945 286.067,528.4348 C281.3094,533.2586 275.085,532.0567 273.6123,524.9931 C269.659,531.4065 264.7868,530.5553 261.5653,524.2973 C254.5101,521.5073 252.9547,514.2029 258.4071,508.8549 C251.72,501.9345 255.7547,496.0882 263.3098,493.8085 " fill="#F1F1F1" style="stroke:#181818;stroke-width:0.5;"/><text fill="#000000" font-family="sans-serif" font-size="14" lengthAdjust="spacing" textLength="57" x="268.5" y="511.9951">Network</text></g><!--MD5=[33c0417c029f7096f7f271e21554e838]
link ExternalNode to external_websocket--><g id="link_ExternalNode_external_websocket"><path d="M256.21,188.26 C257.33,208.74 258.97,238.73 260.01,257.81 " fill="none" id="ExternalNode-to-external_websocket" style="stroke:#181818;stroke-width:1.0;"/><path d="M268.8377,264.3273 A9,9 0 0 0 251.9481 265.2454" fill="none" style="stroke:#181818;stroke-width:1.5;"/></g><!--MD5=[24d2f86c341322a08af366e7b3887621]
link external_websocket to external_tcp_ip--><g id="link_external_websocket_external_tcp_ip"><path d="M261.86,286.34 C263.78,304.9 268.45,349.98 271.09,375.53 " fill="none" id="external_websocket-to-external_tcp_ip" style="stroke:#181818;stroke-width:1.0;"/><path d="M280.2362,381.7991 A9,9 0 0 0 263.4112 383.5371" fill="none" style="stroke:#181818;stroke-width:1.5;"/></g><!--MD5=[5d4ccca0126f72e9b613361e90205e06]
link InternalNode to internal_websocket--><g id="link_InternalNode_internal_websocket"><path d="M531.74,188.26 C526.88,208.83 519.74,239.01 515.24,258.07 " fill="none" id="InternalNode-to-internal_websocket" style="stroke:#181818;stroke-width:1.0;"/><path d="M521.8686,266.8102 A9,9 0 0 0 505.4079 262.9186" fill="none" style="stroke:#181818;stroke-width:1.5;"/></g><!--MD5=[24e9ba811a1e3746512dec489397a687]
link internal_websocket to internal_tcp_ip--><g id="link_internal_websocket_internal_tcp_ip"><path d="M507.98,286.34 C501.2,305.07 484.64,350.8 475.44,376.22 " fill="none" id="internal_websocket-to-internal_tcp_ip" style="stroke:#181818;stroke-width:1.0;"/><path d="M480.99,385.712 A9,9 0 0 0 465.084 379.9587" fill="none" style="stroke:#181818;stroke-width:1.5;"/></g><!--MD5=[8504c0b612b47c468f31cf4a46984799]
link external_tcp_ip to network--><g id="link_external_tcp_ip_network"><path d="M274.8,404.27 C278.44,420.96 286.78,459.16 292.14,483.71 " fill="none" id="external_tcp_ip-network" style="stroke:#181818;stroke-width:1.0;"/></g><!--MD5=[a98bf50267376ab0ef8e007c4a6a0631]
link internal_tcp_ip to network--><g id="link_internal_tcp_ip_network"><path d="M459.75,401.91 C436.03,417.09 372.04,458.01 331.73,483.79 " fill="none" id="internal_tcp_ip-network" style="stroke:#181818;stroke-width:1.0;"/></g><!--MD5=[945ff65ef8110a3ed5a3b993523a2614]
reverse link Router to NodesList--><g id="link_Router_NodesList"><path d="M353.86,849 C361.21,849 368.55,849 375.9,849 " fill="none" id="Router-backto-NodesList" style="stroke:#181818;stroke-width:1.0;"/><polygon fill="#181818" points="340.64,849,346.64,853,352.64,849,346.64,845,340.64,849" style="stroke:#181818;stroke-width:1.0;"/></g><!--MD5=[7ebc265ef89f58acdf4bd618d56be3e0]
link ResourcesList to Router--><g id="link_ResourcesList_Router"><path d="M218.09,849 C225.41,849 232.73,849 240.05,849 " fill="none" id="ResourcesList-to-Router" style="stroke:#181818;stroke-width:1.0;"/><polygon fill="#181818" points="253.23,849,247.23,845,241.23,849,247.23,853,253.23,849" style="stroke:#181818;stroke-width:1.0;"/></g><!--MD5=[58f04a0e71f476496468d4d7bf462807]
reverse link Router to RoutersList--><g id="link_Router_RoutersList"><path d="M297,885.44 C297,900.87 297,918.47 297,931.98 " fill="none" id="Router-backto-RoutersList" style="stroke:#181818;stroke-width:1.0;"/><polygon fill="#181818" points="297,872.06,293,878.06,297,884.06,301,878.06,297,872.06" style="stroke:#181818;stroke-width:1.0;"/></g><!--MD5=[2d6bbff16712eabbd50fbc6202a14bdd]
link network to router_tcp_ip--><g id="link_network_router_tcp_ip"><path d="M297,530.26 C297,554.87 297,593.23 297,609.86 " fill="none" id="network-router_tcp_ip" style="stroke:#181818;stroke-width:1.0;"/></g><!--MD5=[816f14929cf9c01c126b62bdc14b1c99]
reverse link router_tcp_ip to router_websocket--><g id="link_router_tcp_ip_router_websocket"><path d="M297,638.57 C297,664.17 297,709.25 297,727.73 " fill="none" id="router_tcp_ip-backto-router_websocket" style="stroke:#181818;stroke-width:1.0;"/><path d="M288.5428,631.4182 A9,9 0 0 0 305.4572 631.4182" fill="none" style="stroke:#181818;stroke-width:1.5;"/></g><!--MD5=[0878d3d7ad4cf383992895d72f841b57]
reverse link router_websocket to Router--><g id="link_router_websocket_Router"><path d="M297,756.33 C297,775.41 297,805.29 297,825.71 " fill="none" id="router_websocket-backto-Router" style="stroke:#181818;stroke-width:1.0;"/><path d="M288.5428,749.3482 A9,9 0 0 0 305.4572 749.3482" fill="none" style="stroke:#181818;stroke-width:1.5;"/></g><!--MD5=[08aa8a6cd8efbea811f815a1ca4a5f9d]
@startuml io

  node "External container" as external_container {
    interface "tcp/ip" as external_tcp_ip
    node "External process (V8 support)" as external_process {
      interface "ws+http" as external_websocket
      node "Main thread" as external_main_thread {
        component ExternalNode
      }
      ExternalNode - -( external_websocket
    }
    external_websocket - -( external_tcp_ip
  }

  node "Internal container" as internal_container {
    interface "tcp/ip" as internal_tcp_ip
    node "Internal process (V8 support)" as internal_process {
      interface "ws+http" as internal_websocket
      node "Main thread" as internal_main_thread {
        component InternalNode
      }
      InternalNode - -( internal_websocket
      internal_websocket - -( internal_tcp_ip
    }
  }

  cloud "Network" as network
  external_tcp_ip - - network
  internal_tcp_ip - - network 

  node "Router container" as router_container {
    interface "tcp/ip" as router_tcp_ip

    node "Router process (V8 support)" as router_process {
      interface "ws+http" as router_websocket

      node "Main thread" as router_main_thread {
        component Router
        component NodesList
        component ResourcesList
        component RoutersList
        Router *- NodesList
        ResourcesList -* Router
        Router *- - RoutersList
      }
    }
    network - - router_tcp_ip
    router_tcp_ip )- - router_websocket
    router_websocket )- - Router
  }
@enduml

PlantUML version 1.2022.7(Mon Aug 22 19:01:30 CEST 2022)
(GPL source distribution)
Java Runtime: OpenJDK Runtime Environment
JVM: OpenJDK 64-Bit Server VM
Default Encoding: UTF-8
Language: en
Country: US
--></g></svg>