<?xml version="1.0" encoding="UTF-8" standalone="no"?><svg xmlns="http://www.w3.org/2000/svg" xmlns:xlink="http://www.w3.org/1999/xlink" contentStyleType="text/css" height="1010px" preserveAspectRatio="none" style="width:777px;height:1010px;background:#FFFFFF;" version="1.1" viewBox="0 0 777 1010" width="777px" zoomAndPan="magnify"><defs/><g><!--MD5=[90502ac789e6e8f4328a761d642ed1dd]
cluster external_container--><g id="cluster_external_container"><polygon fill="none" points="16,16,26,6,378,6,378,430,368,440,16,440,16,16" style="stroke:#181818;stroke-width:1.0;"/><line style="stroke:#181818;stroke-width:1.0;" x1="368" x2="378" y1="16" y2="6"/><line style="stroke:#181818;stroke-width:1.0;" x1="16" x2="368" y1="16" y2="16"/><line style="stroke:#181818;stroke-width:1.0;" x1="368" x2="368" y1="16" y2="440"/><text fill="#000000" font-family="sans-serif" font-size="14" font-weight="bold" lengthAdjust="spacing" textLength="144" x="121" y="31.9951">External container</text></g><!--MD5=[0b15e99603e3f98b781e3e80145ac8cb]
cluster external_process--><g id="cluster_external_process"><polygon fill="none" points="40,64,50,54,354,54,354,312,344,322,40,322,40,64" style="stroke:#181818;stroke-width:1.0;"/><line style="stroke:#181818;stroke-width:1.0;" x1="344" x2="354" y1="64" y2="54"/><line style="stroke:#181818;stroke-width:1.0;" x1="40" x2="344" y1="64" y2="64"/><line style="stroke:#181818;stroke-width:1.0;" x1="344" x2="344" y1="64" y2="322"/><text fill="#000000" font-family="sans-serif" font-size="14" font-weight="bold" lengthAdjust="spacing" textLength="238" x="74" y="79.9951">External process (V8 support)</text></g><!--MD5=[75b88bb4cfe799ef20b200cef70d18c5]
cluster external_main_thread--><g id="cluster_external_main_thread"><polygon fill="none" points="161,112,171,102,330,102,330,194,320,204,161,204,161,112" style="stroke:#181818;stroke-width:1.0;"/><line style="stroke:#181818;stroke-width:1.0;" x1="320" x2="330" y1="112" y2="102"/><line style="stroke:#181818;stroke-width:1.0;" x1="161" x2="320" y1="112" y2="112"/><line style="stroke:#181818;stroke-width:1.0;" x1="320" x2="320" y1="112" y2="204"/><text fill="#000000" font-family="sans-serif" font-size="14" font-weight="bold" lengthAdjust="spacing" textLength="93" x="195" y="127.9951">Main thread</text></g><!--MD5=[2a26e9beb0fe89a29b40a0a07da09944]
cluster internal_container--><g id="cluster_internal_container"><polygon fill="none" points="402,16,412,6,760,6,760,430,750,440,402,440,402,16" style="stroke:#181818;stroke-width:1.0;"/><line style="stroke:#181818;stroke-width:1.0;" x1="750" x2="760" y1="16" y2="6"/><line style="stroke:#181818;stroke-width:1.0;" x1="402" x2="750" y1="16" y2="16"/><line style="stroke:#181818;stroke-width:1.0;" x1="750" x2="750" y1="16" y2="440"/><text fill="#000000" font-family="sans-serif" font-size="14" font-weight="bold" lengthAdjust="spacing" textLength="140" x="507" y="31.9951">Internal container</text></g><!--MD5=[3bfacbfd5e694b153dadd2208ae56815]
cluster internal_process--><g id="cluster_internal_process"><polygon fill="none" points="426,64,436,54,736,54,736,312,726,322,426,322,426,64" style="stroke:#181818;stroke-width:1.0;"/><line style="stroke:#181818;stroke-width:1.0;" x1="726" x2="736" y1="64" y2="54"/><line style="stroke:#181818;stroke-width:1.0;" x1="426" x2="726" y1="64" y2="64"/><line style="stroke:#181818;stroke-width:1.0;" x1="726" x2="726" y1="64" y2="322"/><text fill="#000000" font-family="sans-serif" font-size="14" font-weight="bold" lengthAdjust="spacing" textLength="234" x="460" y="79.9951">Internal process (V8 support)</text></g><!--MD5=[27122d6e1036e85b70d64c32cfe723d3]
cluster internal_main_thread--><g id="cluster_internal_main_thread"><polygon fill="none" points="450,112,460,102,619,102,619,194,609,204,450,204,450,112" style="stroke:#181818;stroke-width:1.0;"/><line style="stroke:#181818;stroke-width:1.0;" x1="609" x2="619" y1="112" y2="102"/><line style="stroke:#181818;stroke-width:1.0;" x1="450" x2="609" y1="112" y2="112"/><line style="stroke:#181818;stroke-width:1.0;" x1="609" x2="609" y1="112" y2="204"/><text fill="#000000" font-family="sans-serif" font-size="14" font-weight="bold" lengthAdjust="spacing" textLength="93" x="484" y="127.9951">Main thread</text></g><!--MD5=[7a6ee1d4c79628fa58c3f7e97a0ccdba]
cluster gateway_container--><g id="cluster_gateway_container"><polygon fill="none" points="193,560,203,550,649,550,649,983,639,993,193,993,193,560" style="stroke:#181818;stroke-width:1.0;"/><line style="stroke:#181818;stroke-width:1.0;" x1="639" x2="649" y1="560" y2="550"/><line style="stroke:#181818;stroke-width:1.0;" x1="193" x2="639" y1="560" y2="560"/><line style="stroke:#181818;stroke-width:1.0;" x1="639" x2="639" y1="560" y2="993"/><text fill="#000000" font-family="sans-serif" font-size="14" font-weight="bold" lengthAdjust="spacing" textLength="139" x="347.5" y="575.9951">Gatway container</text></g><!--MD5=[2b359e5adc2660affebc6c323e595555]
cluster gateway_process--><g id="cluster_gateway_process"><polygon fill="none" points="274,678,284,668,583,668,583,902,573,912,274,912,274,678" style="stroke:#181818;stroke-width:1.0;"/><line style="stroke:#181818;stroke-width:1.0;" x1="573" x2="583" y1="678" y2="668"/><line style="stroke:#181818;stroke-width:1.0;" x1="274" x2="573" y1="678" y2="678"/><line style="stroke:#181818;stroke-width:1.0;" x1="573" x2="573" y1="678" y2="912"/><text fill="#000000" font-family="sans-serif" font-size="14" font-weight="bold" lengthAdjust="spacing" textLength="233" x="308" y="693.9951">Gatway process (V8 support)</text></g><!--MD5=[09dc35a9ab1ea021fa72c06c398ea022]
cluster gateway_main_thread--><g id="cluster_gateway_main_thread"><polygon fill="none" points="347,796,357,786,516,786,516,878,506,888,347,888,347,796" style="stroke:#181818;stroke-width:1.0;"/><line style="stroke:#181818;stroke-width:1.0;" x1="506" x2="516" y1="796" y2="786"/><line style="stroke:#181818;stroke-width:1.0;" x1="347" x2="506" y1="796" y2="796"/><line style="stroke:#181818;stroke-width:1.0;" x1="506" x2="506" y1="796" y2="888"/><text fill="#000000" font-family="sans-serif" font-size="14" font-weight="bold" lengthAdjust="spacing" textLength="93" x="381" y="811.9951">Main thread</text></g><!--MD5=[e42ec5089d38fbe18d57b22d834c5d6d]
entity external_tcp_ip--><g id="elem_external_tcp_ip"><ellipse cx="313" cy="395" fill="#F1F1F1" rx="8" ry="8" style="stroke:#181818;stroke-width:0.5;"/><text fill="#000000" font-family="sans-serif" font-size="14" lengthAdjust="spacing" textLength="39" x="293.5" y="424.9951">tcp/ip</text></g><!--MD5=[2455982ead69025e00b1c8af5b9f11cd]
entity external_websocket--><g id="elem_external_websocket"><ellipse cx="270" cy="277" fill="#F1F1F1" rx="8" ry="8" style="stroke:#181818;stroke-width:0.5;"/><text fill="#000000" font-family="sans-serif" font-size="14" lengthAdjust="spacing" textLength="59" x="240.5" y="306.9951">ws+http</text></g><!--MD5=[09040b43c3fb57e8baa243bab09a6733]
entity ExternalNode--><g id="elem_ExternalNode"><rect fill="#F1F1F1" height="46.2969" rx="2.5" ry="2.5" style="stroke:#181818;stroke-width:0.5;" width="132" x="182" y="142"/><rect fill="#F1F1F1" height="10" style="stroke:#181818;stroke-width:0.5;" width="15" x="294" y="147"/><rect fill="#F1F1F1" height="2" style="stroke:#181818;stroke-width:0.5;" width="4" x="292" y="149"/><rect fill="#F1F1F1" height="2" style="stroke:#181818;stroke-width:0.5;" width="4" x="292" y="153"/><text fill="#000000" font-family="sans-serif" font-size="14" lengthAdjust="spacing" textLength="92" x="197" y="174.9951">ExternalNode</text></g><!--MD5=[bbf35f625da026bbc215014f0bc224fc]
entity internal_tcp_ip--><g id="elem_internal_tcp_ip"><ellipse cx="462" cy="395" fill="#F1F1F1" rx="8" ry="8" style="stroke:#181818;stroke-width:0.5;"/><text fill="#000000" font-family="sans-serif" font-size="14" lengthAdjust="spacing" textLength="39" x="442.5" y="424.9951">tcp/ip</text></g><!--MD5=[9aaa063eb55701ca349b2085595577ca]
entity internal_websocket--><g id="elem_internal_websocket"><ellipse cx="504" cy="277" fill="#F1F1F1" rx="8" ry="8" style="stroke:#181818;stroke-width:0.5;"/><text fill="#000000" font-family="sans-serif" font-size="14" lengthAdjust="spacing" textLength="59" x="474.5" y="306.9951">ws+http</text></g><!--MD5=[eab5aef66481b5323037137d60784792]
entity InternalNode--><g id="elem_InternalNode"><rect fill="#F1F1F1" height="46.2969" rx="2.5" ry="2.5" style="stroke:#181818;stroke-width:0.5;" width="128" x="466" y="142"/><rect fill="#F1F1F1" height="10" style="stroke:#181818;stroke-width:0.5;" width="15" x="574" y="147"/><rect fill="#F1F1F1" height="2" style="stroke:#181818;stroke-width:0.5;" width="4" x="572" y="149"/><rect fill="#F1F1F1" height="2" style="stroke:#181818;stroke-width:0.5;" width="4" x="572" y="153"/><text fill="#000000" font-family="sans-serif" font-size="14" lengthAdjust="spacing" textLength="88" x="481" y="174.9951">InternalNode</text></g><!--MD5=[1e5d1d37dfa337f3d67f53823a89573e]
entity gateway_tcp_ip--><g id="elem_gateway_tcp_ip"><ellipse cx="420" cy="619" fill="#F1F1F1" rx="8" ry="8" style="stroke:#181818;stroke-width:0.5;"/><text fill="#000000" font-family="sans-serif" font-size="14" lengthAdjust="spacing" textLength="39" x="400.5" y="648.9951">tcp/ip</text></g><!--MD5=[e5469926205265154796dbe5779b7630]
entity ResourcesList--><g id="elem_ResourcesList"><path d="M209,942 C209,932 268,932 268,932 C268,932 327,932 327,942 L327,967.2969 C327,977.2969 268,977.2969 268,977.2969 C268,977.2969 209,977.2969 209,967.2969 L209,942 " fill="#F1F1F1" style="stroke:#181818;stroke-width:0.5;"/><path d="M209,942 C209,952 268,952 268,952 C268,952 327,952 327,942 " fill="none" style="stroke:#181818;stroke-width:0.5;"/><text fill="#000000" font-family="sans-serif" font-size="14" lengthAdjust="spacing" textLength="98" x="219" y="968.9951">ResourcesList</text></g><!--MD5=[2c9fb3d84d5666f7c6058c5dd81ac758]
entity InternalNodes--><g id="elem_InternalNodes"><path d="M362,942 C362,932 420,932 420,932 C420,932 478,932 478,942 L478,967.2969 C478,977.2969 420,977.2969 420,977.2969 C420,977.2969 362,977.2969 362,967.2969 L362,942 " fill="#F1F1F1" style="stroke:#181818;stroke-width:0.5;"/><path d="M362,942 C362,952 420,952 420,952 C420,952 478,952 478,942 " fill="none" style="stroke:#181818;stroke-width:0.5;"/><text fill="#000000" font-family="sans-serif" font-size="14" lengthAdjust="spacing" textLength="96" x="372" y="968.9951">InternalNodes</text></g><!--MD5=[2b2632c318501714c4fe050470a8ed9b]
entity ExternalNodes--><g id="elem_ExternalNodes"><path d="M513,942 C513,932 573,932 573,932 C573,932 633,932 633,942 L633,967.2969 C633,977.2969 573,977.2969 573,977.2969 C573,977.2969 513,977.2969 513,967.2969 L513,942 " fill="#F1F1F1" style="stroke:#181818;stroke-width:0.5;"/><path d="M513,942 C513,952 573,952 573,952 C573,952 633,952 633,942 " fill="none" style="stroke:#181818;stroke-width:0.5;"/><text fill="#000000" font-family="sans-serif" font-size="14" lengthAdjust="spacing" textLength="100" x="523" y="968.9951">ExternalNodes</text></g><!--MD5=[060b7f4b84d04793c27b8715c4b1f8f8]
entity gateway_websocket--><g id="elem_gateway_websocket"><ellipse cx="420" cy="737" fill="#F1F1F1" rx="8" ry="8" style="stroke:#181818;stroke-width:0.5;"/><text fill="#000000" font-family="sans-serif" font-size="14" lengthAdjust="spacing" textLength="59" x="390.5" y="766.9951">ws+http</text></g><!--MD5=[49cbbb1648246ecd0e2d56eda0c19f08]
entity Gateway--><g id="elem_Gateway"><rect fill="#F1F1F1" height="46.2969" rx="2.5" ry="2.5" style="stroke:#181818;stroke-width:0.5;" width="99" x="370.5" y="826"/><rect fill="#F1F1F1" height="10" style="stroke:#181818;stroke-width:0.5;" width="15" x="449.5" y="831"/><rect fill="#F1F1F1" height="2" style="stroke:#181818;stroke-width:0.5;" width="4" x="447.5" y="833"/><rect fill="#F1F1F1" height="2" style="stroke:#181818;stroke-width:0.5;" width="4" x="447.5" y="837"/><text fill="#000000" font-family="sans-serif" font-size="14" lengthAdjust="spacing" textLength="59" x="385.5" y="858.9951">Gateway</text></g><!--MD5=[57220784cd10fd02b95ed95124c16164]
entity network--><g id="elem_network"><path d="M386.3098,493.8085 C388.3706,488.3449 393.3303,487.8462 396.6236,492.5596 C400.5176,486.5319 404.7638,486.0603 409.2677,491.9103 C411.1001,484.8767 416.8035,483.0601 421.7497,488.8885 C426.2911,484.49 429.9501,485.9636 431.8751,491.5435 C435.3627,485.2549 441.7083,484.7285 444.9265,491.8066 C448.486,486.8432 452.3153,486.6668 455.5503,492.137 C463.458,495.8406 465.7218,501.2825 459.4436,508.3852 C467.3448,513.9838 465.227,520.4538 457.6486,524.3073 C454.4521,530.1701 450.6734,531.6243 445.6178,526.3081 C442.8465,532.8024 438.6716,533.0608 433.723,528.6924 C431.0486,535.3422 425.8671,536.8702 420.9888,530.9196 C416.6131,535.4244 411.1783,534.7945 409.067,528.4348 C404.3094,533.2586 398.085,532.0567 396.6123,524.9931 C392.659,531.4065 387.7868,530.5553 384.5653,524.2973 C377.5101,521.5073 375.9547,514.2029 381.4071,508.8549 C374.72,501.9345 378.7547,496.0882 386.3098,493.8085 " fill="#F1F1F1" style="stroke:#181818;stroke-width:0.5;"/><text fill="#000000" font-family="sans-serif" font-size="14" lengthAdjust="spacing" textLength="57" x="391.5" y="511.9951">Network</text></g><!--MD5=[33c0417c029f7096f7f271e21554e838]
link ExternalNode to external_websocket--><g id="link_ExternalNode_external_websocket"><path d="M252.45,188.26 C256.55,208.74 262.55,238.73 266.36,257.81 " fill="none" id="ExternalNode-to-external_websocket" style="stroke:#181818;stroke-width:1.0;"/><path d="M276.0541,263.1744 A9,9 0 0 0 259.4718 266.5102" fill="none" style="stroke:#181818;stroke-width:1.5;"/></g><!--MD5=[24d2f86c341322a08af366e7b3887621]
link external_websocket to external_tcp_ip--><g id="link_external_websocket_external_tcp_ip"><path d="M273.09,286.34 C280.03,305.07 296.99,350.8 306.41,376.22 " fill="none" id="external_websocket-to-external_tcp_ip" style="stroke:#181818;stroke-width:1.0;"/><path d="M316.8014,379.9058 A9,9 0 0 0 300.9401 385.7812" fill="none" style="stroke:#181818;stroke-width:1.5;"/></g><!--MD5=[5d4ccca0126f72e9b613361e90205e06]
link InternalNode to internal_websocket--><g id="link_InternalNode_internal_websocket"><path d="M524.74,188.26 C519.88,208.83 512.74,239.01 508.24,258.07 " fill="none" id="InternalNode-to-internal_websocket" style="stroke:#181818;stroke-width:1.0;"/><path d="M514.8686,266.8102 A9,9 0 0 0 498.4079 262.9186" fill="none" style="stroke:#181818;stroke-width:1.5;"/></g><!--MD5=[24e9ba811a1e3746512dec489397a687]
link internal_websocket to internal_tcp_ip--><g id="link_internal_websocket_internal_tcp_ip"><path d="M500.98,286.34 C494.2,305.07 477.64,350.8 468.44,376.22 " fill="none" id="internal_websocket-to-internal_tcp_ip" style="stroke:#181818;stroke-width:1.0;"/><path d="M473.99,385.712 A9,9 0 0 0 458.084 379.9587" fill="none" style="stroke:#181818;stroke-width:1.5;"/></g><!--MD5=[8504c0b612b47c468f31cf4a46984799]
link external_tcp_ip to network--><g id="link_external_tcp_ip_network"><path d="M321.04,404.27 C337.28,420.96 374.44,459.16 398.32,483.71 " fill="none" id="external_tcp_ip-network" style="stroke:#181818;stroke-width:1.0;"/></g><!--MD5=[a98bf50267376ab0ef8e007c4a6a0631]
link internal_tcp_ip to network--><g id="link_internal_tcp_ip_network"><path d="M458.84,404.27 C452.47,420.96 437.88,459.16 428.51,483.71 " fill="none" id="internal_tcp_ip-network" style="stroke:#181818;stroke-width:1.0;"/></g><!--MD5=[4defb87a09b073ea81602bf027c52f7c]
link network to gateway_tcp_ip--><g id="link_network_gateway_tcp_ip"><path d="M420,530.26 C420,554.87 420,593.23 420,609.86 " fill="none" id="network-gateway_tcp_ip" style="stroke:#181818;stroke-width:1.0;"/></g><!--MD5=[86fa1f9d1d5753c4489b00084841eb29]
reverse link gateway_tcp_ip to gateway_websocket--><g id="link_gateway_tcp_ip_gateway_websocket"><path d="M420,638.57 C420,664.17 420,709.25 420,727.73 " fill="none" id="gateway_tcp_ip-backto-gateway_websocket" style="stroke:#181818;stroke-width:1.0;"/><path d="M411.5428,631.4182 A9,9 0 0 0 428.4572 631.4182" fill="none" style="stroke:#181818;stroke-width:1.5;"/></g><!--MD5=[d95edd9af92e06fdffcd66b28d7a4e13]
reverse link gateway_websocket to Gateway--><g id="link_gateway_websocket_Gateway"><path d="M420,756.33 C420,775.41 420,805.29 420,825.71 " fill="none" id="gateway_websocket-backto-Gateway" style="stroke:#181818;stroke-width:1.0;"/><path d="M411.5428,749.3482 A9,9 0 0 0 428.4572 749.3482" fill="none" style="stroke:#181818;stroke-width:1.5;"/></g><!--MD5=[6364ad13c467cdcda237cd252dcfaecb]
reverse link Gateway to ResourcesList--><g id="link_Gateway_ResourcesList"><path d="M376.58,879.56 C352.1,896.24 322.05,916.7 299.77,931.87 " fill="none" id="Gateway-backto-ResourcesList" style="stroke:#181818;stroke-width:1.0;"/><polygon fill="#181818" points="387.39,872.2,380.1792,872.2703,377.4708,878.9535,384.6816,878.8831,387.39,872.2" style="stroke:#181818;stroke-width:1.0;"/></g><!--MD5=[48a9767e62b9626af6ed5299b4ec1fe4]
reverse link Gateway to InternalNodes--><g id="link_Gateway_InternalNodes"><path d="M420,885.52 C420,900.85 420,918.31 420,931.69 " fill="none" id="Gateway-backto-InternalNodes" style="stroke:#181818;stroke-width:1.0;"/><polygon fill="#181818" points="420,872.2,416,878.2,420,884.2,424,878.2,420,872.2" style="stroke:#181818;stroke-width:1.0;"/></g><!--MD5=[a68db4722267972c7a3e97627212f7ce]
reverse link Gateway to ExternalNodes--><g id="link_Gateway_ExternalNodes"><path d="M463.7,879.56 C488.35,896.24 518.6,916.7 541.02,931.87 " fill="none" id="Gateway-backto-ExternalNodes" style="stroke:#181818;stroke-width:1.0;"/><polygon fill="#181818" points="452.82,872.2,455.5488,878.8748,462.7598,878.9232,460.0309,872.2483,452.82,872.2" style="stroke:#181818;stroke-width:1.0;"/></g><!--MD5=[db39427f7b29bd240a61db9fb8a2b29b]
@startuml io

  node "External container" as external_container {
    interface "tcp/ip" as external_tcp_ip
    node "External process (V8 support)" as external_process {
      interface "ws+http" as external_websocket
      node "Main thread" as external_main_thread {
        component ExternalNode
      }
      ExternalNode - -( external_websocket
    }
    external_websocket - -( external_tcp_ip
  }

  node "Internal container" as internal_container {
    interface "tcp/ip" as internal_tcp_ip
    node "Internal process (V8 support)" as internal_process {
      interface "ws+http" as internal_websocket
      node "Main thread" as internal_main_thread {
        component InternalNode
      }
      InternalNode - -( internal_websocket
      internal_websocket - -( internal_tcp_ip
    }
  }

  cloud "Network" as network
  external_tcp_ip - - network
  internal_tcp_ip - - network 

  node "Gatway container" as gateway_container {
    interface "tcp/ip" as gateway_tcp_ip

    node "Gatway process (V8 support)" as gateway_process {
      interface "ws+http" as gateway_websocket

      node "Main thread" as gateway_main_thread {
        component Gateway
      }
    }
    network - - gateway_tcp_ip
    gateway_tcp_ip )- - gateway_websocket
    gateway_websocket )- - Gateway

    database ResourcesList
    database InternalNodes
    database ExternalNodes
    Gateway *- - ResourcesList
    Gateway *- - InternalNodes
    Gateway *- - ExternalNodes
  }
@enduml

PlantUML version 1.2022.7(Mon Aug 22 19:01:30 CEST 2022)
(GPL source distribution)
Java Runtime: OpenJDK Runtime Environment
JVM: OpenJDK 64-Bit Server VM
Default Encoding: UTF-8
Language: en
Country: US
--></g></svg>