<?xml version="1.0" encoding="UTF-8" standalone="no"?><svg xmlns="http://www.w3.org/2000/svg" xmlns:xlink="http://www.w3.org/1999/xlink" contentStyleType="text/css" height="324px" preserveAspectRatio="none" style="width:519px;height:324px;background:#FFFFFF;" version="1.1" viewBox="0 0 519 324" width="519px" zoomAndPan="magnify"><defs/><g><g id="elem_Headers"><rect fill="#F1F1F1" height="36.2969" style="stroke:#181818;stroke-width:0.5;" width="72" x="231" y="7"/><text fill="#000000" font-family="sans-serif" font-size="14" lengthAdjust="spacing" textLength="58" x="238" y="21.9951">Headers</text><line style="stroke:#181818;stroke-width:0.5;" x1="232" x2="302" y1="27.2969" y2="27.2969"/></g><g id="elem_Brokers"><rect fill="#F1F1F1" height="109.7813" style="stroke:#181818;stroke-width:0.5;" width="226" x="23" y="103"/><text fill="#000000" font-family="sans-serif" font-size="14" lengthAdjust="spacing" textLength="54" x="109" y="117.9951">Brokers</text><line style="stroke:#181818;stroke-width:0.5;" x1="24" x2="248" y1="123.2969" y2="123.2969"/><ellipse cx="34" cy="136.9453" fill="none" rx="3" ry="3" style="stroke:#038048;stroke-width:1.0;"/><text fill="#000000" font-family="sans-serif" font-size="14" lengthAdjust="spacing" textLength="72" x="43" y="140.292">key: string</text><ellipse cx="34" cy="153.2422" fill="#84BE84" rx="3" ry="3" style="stroke:#038048;stroke-width:1.0;"/><text fill="#000000" font-family="sans-serif" font-size="14" lengthAdjust="spacing" textLength="156" x="43" y="156.5889">partition [f(key)]: string</text><ellipse cx="34" cy="169.5391" fill="none" rx="3" ry="3" style="stroke:#038048;stroke-width:1.0;"/><text fill="#000000" font-family="sans-serif" font-size="14" lengthAdjust="spacing" textLength="121" x="43" y="172.8857">timestamp: string</text><ellipse cx="34" cy="185.8359" fill="none" rx="3" ry="3" style="stroke:#038048;stroke-width:1.0;"/><text fill="#000000" font-family="sans-serif" font-size="14" lengthAdjust="spacing" textLength="124" x="43" y="189.1826">headers: Headers</text><ellipse cx="34" cy="202.1328" fill="none" rx="3" ry="3" style="stroke:#038048;stroke-width:1.0;"/><text fill="#000000" font-family="sans-serif" font-size="14" lengthAdjust="spacing" textLength="200" x="43" y="205.4795">value: Registered | Removed</text></g><g id="elem_Registered"><rect fill="#F1F1F1" height="44.5938" style="stroke:#181818;stroke-width:0.5;" width="104" x="7" y="273"/><text fill="#000000" font-family="sans-serif" font-size="14" lengthAdjust="spacing" textLength="76" x="21" y="287.9951">Registered</text><line style="stroke:#181818;stroke-width:0.5;" x1="8" x2="110" y1="293.2969" y2="293.2969"/><ellipse cx="18" cy="306.9453" fill="none" rx="3" ry="3" style="stroke:#038048;stroke-width:1.0;"/><text fill="#000000" font-family="sans-serif" font-size="14" lengthAdjust="spacing" textLength="78" x="27" y="310.292">uuid: string</text></g><g id="elem_Removed"><rect fill="#F1F1F1" height="44.5938" style="stroke:#181818;stroke-width:0.5;" width="104" x="146" y="273"/><text fill="#000000" font-family="sans-serif" font-size="14" lengthAdjust="spacing" textLength="66" x="165" y="287.9951">Removed</text><line style="stroke:#181818;stroke-width:0.5;" x1="147" x2="249" y1="293.2969" y2="293.2969"/><ellipse cx="157" cy="306.9453" fill="none" rx="3" ry="3" style="stroke:#038048;stroke-width:1.0;"/><text fill="#000000" font-family="sans-serif" font-size="14" lengthAdjust="spacing" textLength="78" x="166" y="310.292">uuid: string</text></g><g id="elem_Heartbeats"><rect fill="#F1F1F1" height="109.7813" style="stroke:#181818;stroke-width:0.5;" width="228" x="284" y="103"/><text fill="#000000" font-family="sans-serif" font-size="14" lengthAdjust="spacing" textLength="116" x="340" y="117.9951">Heartbeats[uuid]</text><line style="stroke:#181818;stroke-width:0.5;" x1="285" x2="511" y1="123.2969" y2="123.2969"/><ellipse cx="295" cy="136.9453" fill="none" rx="3" ry="3" style="stroke:#038048;stroke-width:1.0;"/><text fill="#000000" font-family="sans-serif" font-size="14" lengthAdjust="spacing" textLength="72" x="304" y="140.292">key: string</text><ellipse cx="295" cy="153.2422" fill="#84BE84" rx="3" ry="3" style="stroke:#038048;stroke-width:1.0;"/><text fill="#000000" font-family="sans-serif" font-size="14" lengthAdjust="spacing" textLength="156" x="304" y="156.5889">partition [f(key)]: string</text><ellipse cx="295" cy="169.5391" fill="none" rx="3" ry="3" style="stroke:#038048;stroke-width:1.0;"/><text fill="#000000" font-family="sans-serif" font-size="14" lengthAdjust="spacing" textLength="121" x="304" y="172.8857">timestamp: string</text><ellipse cx="295" cy="185.8359" fill="none" rx="3" ry="3" style="stroke:#038048;stroke-width:1.0;"/><text fill="#000000" font-family="sans-serif" font-size="14" lengthAdjust="spacing" textLength="124" x="304" y="189.1826">headers: Headers</text><ellipse cx="295" cy="202.1328" fill="none" rx="3" ry="3" style="stroke:#038048;stroke-width:1.0;"/><text fill="#000000" font-family="sans-serif" font-size="14" lengthAdjust="spacing" textLength="202" x="304" y="205.4795">value: Registered | Heartbeat</text></g><g id="elem_Heartbeat"><rect fill="#F1F1F1" height="44.5938" style="stroke:#181818;stroke-width:0.5;" width="104" x="346" y="273"/><text fill="#000000" font-family="sans-serif" font-size="14" lengthAdjust="spacing" textLength="68" x="364" y="287.9951">Heartbeat</text><line style="stroke:#181818;stroke-width:0.5;" x1="347" x2="449" y1="293.2969" y2="293.2969"/><ellipse cx="357" cy="306.9453" fill="none" rx="3" ry="3" style="stroke:#038048;stroke-width:1.0;"/><text fill="#000000" font-family="sans-serif" font-size="14" lengthAdjust="spacing" textLength="78" x="366" y="310.292">uuid: string</text></g><!--MD5=[37d502393b0c8e218b93ad8bca23e4c4]
reverse link Headers to Brokers--><g id="link_Headers_Brokers"><path codeLine="12" d="M240.57,52.43 C226.11,66.89 207.65,85.35 190.27,102.73 " fill="none" id="Headers-backto-Brokers" style="stroke:#181818;stroke-width:1.0;"/><polygon fill="#181818" points="249.87,43.13,242.7989,44.5442,241.3847,51.6153,248.4558,50.2011,249.87,43.13" style="stroke:#181818;stroke-width:1.0;"/></g><!--MD5=[cac1dba8c698612e913d5aa02d9a2db8]
link Brokers to Registered--><g id="link_Brokers_Registered"><path codeLine="17" d="M105.12,213.33 C95.84,229.67 85.94,247.09 77.7,261.59 " fill="none" id="Brokers-to-Registered" style="stroke:#181818;stroke-width:1.0;"/><polygon fill="none" points="71.22,272.99,77.6605,269.7466,77.1438,262.5541,70.7033,265.7974,71.22,272.99" style="stroke:#181818;stroke-width:1.0;"/></g><!--MD5=[c6717411767fe544bfbde73b81302e5c]
link Brokers to Removed--><g id="link_Brokers_Removed"><path codeLine="22" d="M160.86,213.33 C168.26,229.5 176.15,246.74 182.74,261.15 " fill="none" id="Brokers-to-Removed" style="stroke:#181818;stroke-width:1.0;"/><polygon fill="none" points="188.16,272.99,189.2999,265.8696,183.1656,262.0787,182.0257,269.1992,188.16,272.99" style="stroke:#181818;stroke-width:1.0;"/></g><!--MD5=[37e2cf651c8654ec26d2329d55536173]
reverse link Headers to Heartbeats--><g id="link_Headers_Heartbeats"><path codeLine="31" d="M293.43,52.43 C307.89,66.89 326.35,85.35 343.73,102.73 " fill="none" id="Headers-backto-Heartbeats" style="stroke:#181818;stroke-width:1.0;"/><polygon fill="#181818" points="284.13,43.13,285.5442,50.2011,292.6153,51.6153,291.2011,44.5442,284.13,43.13" style="stroke:#181818;stroke-width:1.0;"/></g><!--MD5=[1057b4aba0ab0e4427fe30960a190d7a]
link Heartbeats to Heartbeat--><g id="link_Heartbeats_Heartbeat"><path codeLine="36" d="M398,213.33 C398,229.01 398,245.7 398,259.83 " fill="none" id="Heartbeats-to-Heartbeat" style="stroke:#181818;stroke-width:1.0;"/><polygon fill="none" points="398,272.99,402,266.99,398,260.99,394,266.99,398,272.99" style="stroke:#181818;stroke-width:1.0;"/></g><!--MD5=[dd13200084d86b5d4929d0f096112b5d]
@startuml topics_structure

  object Headers {
  }

  object Brokers {
    +key: string
    +partition [f(key)]: string
    +timestamp: string
    +headers: Headers
    +value: Registered | Removed
  }
  Headers *- - Brokers

  object Registered {
    +uuid: string
  }
  Brokers - -o Registered

  object Removed {
    +uuid: string
  }
  Brokers - -o Removed

  object "Heartbeats[uuid]" as Heartbeats {
    +key: string
    +partition [f(key)]: string
    +timestamp: string
    +headers: Headers
    +value: Registered | Heartbeat
  }
  Headers *- - Heartbeats

  object Heartbeat {
    +uuid: string
  }
  Heartbeats - -o Heartbeat

@enduml

PlantUML version 1.2022.7(Mon Aug 22 10:01:30 PDT 2022)
(GPL source distribution)
Java Runtime: OpenJDK Runtime Environment
JVM: OpenJDK 64-Bit Server VM
Default Encoding: UTF-8
Language: en
Country: US
--></g></svg>