<?xml version="1.0" encoding="UTF-8" standalone="no"?><svg xmlns="http://www.w3.org/2000/svg" xmlns:xlink="http://www.w3.org/1999/xlink" contentStyleType="text/css" height="424px" preserveAspectRatio="none" style="width:764px;height:424px;background:#FFFFFF;" version="1.1" viewBox="0 0 764 424" width="764px" zoomAndPan="magnify"><defs/><g><!--MD5=[ea844a1fc3570c7b8aea9cc83cef3d60]
cluster mln.io--><g id="cluster_mln.io"><path d="M8.5,129 L56.5,129 A3.75,3.75 0 0 1 59,131.5 L66,151.2969 L754.5,151.2969 A2.5,2.5 0 0 1 757,153.7969 L757,414.5 A2.5,2.5 0 0 1 754.5,417 L8.5,417 A2.5,2.5 0 0 1 6,414.5 L6,131.5 A2.5,2.5 0 0 1 8.5,129 " fill="none" style="stroke:#000000;stroke-width:1.5;"/><line style="stroke:#000000;stroke-width:1.5;" x1="6" x2="66" y1="151.2969" y2="151.2969"/><text fill="#000000" font-family="sans-serif" font-size="14" font-weight="bold" lengthAdjust="spacing" textLength="47" x="10" y="143.9951">mln.io</text></g><!--MD5=[c3e3c9970ac48f7d084cf9b93a3030e6]
cluster mln--><g id="cluster_mln"><path d="M305.5,6 L334.5,6 A3.75,3.75 0 0 1 337,8.5 L344,28.2969 L402.5,28.2969 A2.5,2.5 0 0 1 405,30.7969 L405,102.5 A2.5,2.5 0 0 1 402.5,105 L305.5,105 A2.5,2.5 0 0 1 303,102.5 L303,8.5 A2.5,2.5 0 0 1 305.5,6 " fill="none" style="stroke:#000000;stroke-width:1.5;"/><line style="stroke:#000000;stroke-width:1.5;" x1="303" x2="344" y1="28.2969" y2="28.2969"/><text fill="#000000" font-family="sans-serif" font-size="14" font-weight="bold" lengthAdjust="spacing" textLength="28" x="307" y="20.9951">mln</text></g><!--MD5=[b58dabce021d2c9b4f55085934113986]
class mln.io.Register--><g id="elem_mln.io.Register"><rect codeLine="2" fill="#F1F1F1" height="113.1875" id="mln.io.Register" rx="2.5" ry="2.5" style="stroke:#181818;stroke-width:0.5;" width="395" x="345.5" y="164"/><ellipse cx="509.75" cy="180" fill="#ADD1B2" rx="11" ry="11" style="stroke:#181818;stroke-width:1.0;"/><path d="M512.7188,185.6406 Q512.1406,185.9375 511.5,186.0781 Q510.8594,186.2344 510.1563,186.2344 Q507.6563,186.2344 506.3281,184.5938 Q505.0156,182.9375 505.0156,179.8125 Q505.0156,176.6875 506.3281,175.0313 Q507.6563,173.375 510.1563,173.375 Q510.8594,173.375 511.5,173.5313 Q512.1563,173.6875 512.7188,173.9844 L512.7188,176.7031 Q512.0938,176.125 511.5,175.8594 Q510.9063,175.5781 510.2813,175.5781 Q508.9375,175.5781 508.25,176.6563 Q507.5625,177.7188 507.5625,179.8125 Q507.5625,181.9063 508.25,182.9844 Q508.9375,184.0469 510.2813,184.0469 Q510.9063,184.0469 511.5,183.7813 Q512.0938,183.5 512.7188,182.9219 L512.7188,185.6406 Z " fill="#000000"/><text fill="#000000" font-family="sans-serif" font-size="14" lengthAdjust="spacing" textLength="58" x="530.25" y="184.8467">Register</text><line style="stroke:#181818;stroke-width:0.5;" x1="346.5" x2="739.5" y1="196" y2="196"/><rect fill="none" height="6" style="stroke:#C82930;stroke-width:1.0;" width="6" x="353.5" y="206.6484"/><text fill="#000000" font-family="sans-serif" font-size="14" lengthAdjust="spacing" textLength="112" x="365.5" y="212.9951">interval: number</text><rect fill="none" height="6" style="stroke:#C82930;stroke-width:1.0;" width="6" x="353.5" y="222.9453"/><text fill="#000000" font-family="sans-serif" font-size="14" lengthAdjust="spacing" textLength="229" x="365.5" y="229.292">register: Map&lt;string, timeoutID&gt;</text><line style="stroke:#181818;stroke-width:0.5;" x1="346.5" x2="739.5" y1="236.5938" y2="236.5938"/><rect fill="#F24D5C" height="6" style="stroke:#C82930;stroke-width:1.0;" width="6" x="353.5" y="247.2422"/><text fill="#000000" font-family="sans-serif" font-size="14" lengthAdjust="spacing" textLength="258" x="365.5" y="253.5889">sendHeartbeat(): Promise&lt;boolean&gt;</text><rect fill="#F24D5C" height="6" style="stroke:#C82930;stroke-width:1.0;" width="6" x="353.5" y="263.5391"/><text fill="#000000" font-family="sans-serif" font-size="14" lengthAdjust="spacing" textLength="369" x="365.5" y="269.8857">processHeartbeat(uid: string, timestamp: string): void</text></g><!--MD5=[4d63dd394b3fee0d8d42ee53dbef628d]
class mln.io.BrokersRegister--><g id="elem_mln.io.BrokersRegister"><rect codeLine="9" fill="#F1F1F1" height="48" id="mln.io.BrokersRegister" rx="2.5" ry="2.5" style="stroke:#181818;stroke-width:0.5;" width="144" x="281" y="345"/><ellipse cx="296" cy="361" fill="#ADD1B2" rx="11" ry="11" style="stroke:#181818;stroke-width:1.0;"/><path d="M298.9688,366.6406 Q298.3906,366.9375 297.75,367.0781 Q297.1094,367.2344 296.4063,367.2344 Q293.9063,367.2344 292.5781,365.5938 Q291.2656,363.9375 291.2656,360.8125 Q291.2656,357.6875 292.5781,356.0313 Q293.9063,354.375 296.4063,354.375 Q297.1094,354.375 297.75,354.5313 Q298.4063,354.6875 298.9688,354.9844 L298.9688,357.7031 Q298.3438,357.125 297.75,356.8594 Q297.1563,356.5781 296.5313,356.5781 Q295.1875,356.5781 294.5,357.6563 Q293.8125,358.7188 293.8125,360.8125 Q293.8125,362.9063 294.5,363.9844 Q295.1875,365.0469 296.5313,365.0469 Q297.1563,365.0469 297.75,364.7813 Q298.3438,364.5 298.9688,363.9219 L298.9688,366.6406 Z " fill="#000000"/><text fill="#000000" font-family="sans-serif" font-size="14" lengthAdjust="spacing" textLength="112" x="310" y="365.8467">BrokersRegister</text><line style="stroke:#181818;stroke-width:0.5;" x1="282" x2="424" y1="377" y2="377"/><line style="stroke:#181818;stroke-width:0.5;" x1="282" x2="424" y1="385" y2="385"/></g><!--MD5=[a6ca24728c6b38b33d0d03c4e46af48b]
class mln.io.WorkersRegister--><g id="elem_mln.io.WorkersRegister"><rect codeLine="12" fill="#F1F1F1" height="64.2969" id="mln.io.WorkersRegister" rx="2.5" ry="2.5" style="stroke:#181818;stroke-width:0.5;" width="241" x="460.5" y="337"/><ellipse cx="519.25" cy="353" fill="#ADD1B2" rx="11" ry="11" style="stroke:#181818;stroke-width:1.0;"/><path d="M522.2188,358.6406 Q521.6406,358.9375 521,359.0781 Q520.3594,359.2344 519.6563,359.2344 Q517.1563,359.2344 515.8281,357.5938 Q514.5156,355.9375 514.5156,352.8125 Q514.5156,349.6875 515.8281,348.0313 Q517.1563,346.375 519.6563,346.375 Q520.3594,346.375 521,346.5313 Q521.6563,346.6875 522.2188,346.9844 L522.2188,349.7031 Q521.5938,349.125 521,348.8594 Q520.4063,348.5781 519.7813,348.5781 Q518.4375,348.5781 517.75,349.6563 Q517.0625,350.7188 517.0625,352.8125 Q517.0625,354.9063 517.75,355.9844 Q518.4375,357.0469 519.7813,357.0469 Q520.4063,357.0469 521,356.7813 Q521.5938,356.5 522.2188,355.9219 L522.2188,358.6406 Z " fill="#000000"/><text fill="#000000" font-family="sans-serif" font-size="14" lengthAdjust="spacing" textLength="115" x="539.75" y="357.8467">WorkersRegister</text><line style="stroke:#181818;stroke-width:0.5;" x1="461.5" x2="700.5" y1="369" y2="369"/><rect fill="none" height="6" style="stroke:#C82930;stroke-width:1.0;" width="6" x="468.5" y="379.6484"/><text fill="#000000" font-family="sans-serif" font-size="14" lengthAdjust="spacing" textLength="215" x="480.5" y="385.9951">services: Map&lt;string, string[]&gt;</text><line style="stroke:#181818;stroke-width:0.5;" x1="461.5" x2="700.5" y1="393.2969" y2="393.2969"/></g><!--MD5=[7d538834d94feb0444df017ab8beb758]
class mln.io.Worker--><g id="elem_mln.io.Worker"><rect codeLine="16" fill="#F1F1F1" height="80.5938" id="mln.io.Worker" rx="2.5" ry="2.5" style="stroke:#181818;stroke-width:0.5;" width="289" x="21.5" y="180"/><ellipse cx="137.25" cy="196" fill="#ADD1B2" rx="11" ry="11" style="stroke:#181818;stroke-width:1.0;"/><path d="M140.2188,201.6406 Q139.6406,201.9375 139,202.0781 Q138.3594,202.2344 137.6563,202.2344 Q135.1563,202.2344 133.8281,200.5938 Q132.5156,198.9375 132.5156,195.8125 Q132.5156,192.6875 133.8281,191.0313 Q135.1563,189.375 137.6563,189.375 Q138.3594,189.375 139,189.5313 Q139.6563,189.6875 140.2188,189.9844 L140.2188,192.7031 Q139.5938,192.125 139,191.8594 Q138.4063,191.5781 137.7813,191.5781 Q136.4375,191.5781 135.75,192.6563 Q135.0625,193.7188 135.0625,195.8125 Q135.0625,197.9063 135.75,198.9844 Q136.4375,200.0469 137.7813,200.0469 Q138.4063,200.0469 139,199.7813 Q139.5938,199.5 140.2188,198.9219 L140.2188,201.6406 Z " fill="#000000"/><text fill="#000000" font-family="sans-serif" font-size="14" lengthAdjust="spacing" textLength="49" x="157.75" y="200.8467">Worker</text><line style="stroke:#181818;stroke-width:0.5;" x1="22.5" x2="309.5" y1="212" y2="212"/><rect fill="none" height="6" style="stroke:#C82930;stroke-width:1.0;" width="6" x="29.5" y="222.6484"/><text fill="#000000" font-family="sans-serif" font-size="14" lengthAdjust="spacing" textLength="115" x="41.5" y="228.9951">services: string[]</text><line style="stroke:#181818;stroke-width:0.5;" x1="22.5" x2="309.5" y1="236.2969" y2="236.2969"/><ellipse cx="32.5" cy="249.9453" fill="#84BE84" rx="3" ry="3" style="stroke:#038048;stroke-width:1.0;"/><text fill="#000000" font-family="sans-serif" font-size="14" lengthAdjust="spacing" textLength="263" x="41.5" y="253.292">constructor(services: string[]): Worker</text></g><!--MD5=[9507674483f1e8a836373a582e6b0b3c]
class mln.Node--><g id="elem_mln.Node"><rect fill="#F1F1F1" height="48" id="mln.Node" rx="2.5" ry="2.5" style="stroke:#181818;stroke-width:0.5;" width="69" x="319.5" y="41"/><ellipse cx="334.5" cy="57" fill="#ADD1B2" rx="11" ry="11" style="stroke:#181818;stroke-width:1.0;"/><path d="M337.4688,62.6406 Q336.8906,62.9375 336.25,63.0781 Q335.6094,63.2344 334.9063,63.2344 Q332.4063,63.2344 331.0781,61.5938 Q329.7656,59.9375 329.7656,56.8125 Q329.7656,53.6875 331.0781,52.0313 Q332.4063,50.375 334.9063,50.375 Q335.6094,50.375 336.25,50.5313 Q336.9063,50.6875 337.4688,50.9844 L337.4688,53.7031 Q336.8438,53.125 336.25,52.8594 Q335.6563,52.5781 335.0313,52.5781 Q333.6875,52.5781 333,53.6563 Q332.3125,54.7188 332.3125,56.8125 Q332.3125,58.9063 333,59.9844 Q333.6875,61.0469 335.0313,61.0469 Q335.6563,61.0469 336.25,60.7813 Q336.8438,60.5 337.4688,59.9219 L337.4688,62.6406 Z " fill="#000000"/><text fill="#000000" font-family="sans-serif" font-size="14" lengthAdjust="spacing" textLength="37" x="348.5" y="61.8467">Node</text><line style="stroke:#181818;stroke-width:0.5;" x1="320.5" x2="387.5" y1="73" y2="73"/><line style="stroke:#181818;stroke-width:0.5;" x1="320.5" x2="387.5" y1="81" y2="81"/></g><!--MD5=[da72a23e101191d3e7a8ea3bfa417d1e]
reverse link mln.Node to mln.io.Register--><g id="link_mln.Node_mln.io.Register"><path d="M398.45,102.1 C421.05,120.46 449.03,143.18 474.32,163.72 " fill="none" id="mln.Node-backto-mln.io.Register" style="stroke:#181818;stroke-width:1.0;"/><polygon fill="none" points="393.82,107.36,382.71,89.31,402.64,96.49,393.82,107.36" style="stroke:#181818;stroke-width:1.0;"/></g><!--MD5=[e352c86f803d864dffca1352ab82109c]
reverse link mln.io.Register to mln.io.BrokersRegister--><g id="link_mln.io.Register_mln.io.BrokersRegister"><path d="M454.97,289.37 C429.14,309.29 402.62,329.74 383.1,344.79 " fill="none" id="mln.io.Register-backto-mln.io.BrokersRegister" style="stroke:#181818;stroke-width:1.0;"/><polygon fill="none" points="450.79,283.76,470.9,277.09,459.33,294.85,450.79,283.76" style="stroke:#181818;stroke-width:1.0;"/></g><!--MD5=[c0fc02e70e7cbc326e1590944bf088ba]
reverse link mln.io.Register to mln.io.WorkersRegister--><g id="link_mln.io.Register_mln.io.WorkersRegister"><path d="M562.61,297.09 C566.26,311.18 569.89,325.16 572.94,336.94 " fill="none" id="mln.io.Register-backto-mln.io.WorkersRegister" style="stroke:#181818;stroke-width:1.0;"/><polygon fill="none" points="555.72,298.42,557.47,277.3,569.27,294.91,555.72,298.42" style="stroke:#181818;stroke-width:1.0;"/></g><!--MD5=[09211ed2cbf2208fdddb15217f58439a]
reverse link mln.Node to mln.io.Worker--><g id="link_mln.Node_mln.io.Worker"><path d="M309.74,102.13 C281.17,125.46 243.99,155.82 214.6,179.82 " fill="none" id="mln.Node-backto-mln.io.Worker" style="stroke:#181818;stroke-width:1.0;"/><polygon fill="none" points="305.53,96.54,325.45,89.31,314.38,107.38,305.53,96.54" style="stroke:#181818;stroke-width:1.0;"/></g><!--MD5=[57c735c63a44418ff2b14277bd491fec]
@startuml types

  class mln.io.Register extends mln.Node {
    -interval: number
    -register: Map<string, timeoutID>
    -sendHeartbeat(): Promise<boolean>
    -processHeartbeat(uid: string, timestamp: string): void
  }

  class mln.io.BrokersRegister extends mln.io.Register {
  }

  class mln.io.WorkersRegister extends mln.io.Register {
    -services: Map<string, string[]>
  }

  class mln.io.Worker extends mln.Node {
    -services: string[]
    +constructor(services: string[]): Worker
  }

@enduml

PlantUML version 1.2022.7(Mon Aug 22 10:01:30 PDT 2022)
(GPL source distribution)
Java Runtime: OpenJDK Runtime Environment
JVM: OpenJDK 64-Bit Server VM
Default Encoding: UTF-8
Language: en
Country: US
--></g></svg>