<?xml version="1.0" encoding="UTF-8" standalone="no"?><svg xmlns="http://www.w3.org/2000/svg" xmlns:xlink="http://www.w3.org/1999/xlink" contentStyleType="text/css" height="466px" preserveAspectRatio="none" style="width:624px;height:466px;background:#FFFFFF;" version="1.1" viewBox="0 0 624 466" width="624px" zoomAndPan="magnify"><defs/><g><rect fill="none" height="271.6875" style="stroke:#000000;stroke-width:1.5;" width="608.5" x="10" y="53.2969"/><rect fill="none" height="75.3984" style="stroke:#000000;stroke-width:1.5;" width="315.5" x="10" y="338.9844"/><line style="stroke:#181818;stroke-width:0.5;stroke-dasharray:5.0,5.0;" x1="51" x2="51" y1="36.2969" y2="431.3828"/><line style="stroke:#181818;stroke-width:0.5;stroke-dasharray:5.0,5.0;" x1="271.5" x2="271.5" y1="98.5781" y2="431.3828"/><line style="stroke:#181818;stroke-width:0.5;stroke-dasharray:5.0,5.0;" x1="368.5" x2="368.5" y1="164.0078" y2="431.3828"/><line style="stroke:#181818;stroke-width:0.5;stroke-dasharray:5.0,5.0;" x1="471.5" x2="471.5" y1="229.4375" y2="431.3828"/><line style="stroke:#181818;stroke-width:0.5;stroke-dasharray:5.0,5.0;" x1="569.5" x2="569.5" y1="36.2969" y2="431.3828"/><rect fill="#E2E2F0" height="30.2969" rx="2.5" ry="2.5" style="stroke:#181818;stroke-width:0.5;" width="63" x="20" y="5"/><text fill="#000000" font-family="sans-serif" font-size="14" lengthAdjust="spacing" textLength="49" x="27" y="24.9951">Worker</text><rect fill="#E2E2F0" height="30.2969" rx="2.5" ry="2.5" style="stroke:#181818;stroke-width:0.5;" width="63" x="20" y="430.3828"/><text fill="#000000" font-family="sans-serif" font-size="14" lengthAdjust="spacing" textLength="49" x="27" y="450.3779">Worker</text><path d="M232.5,430.3828 L310.5,430.3828 C315.5,430.3828 315.5,443.5313 315.5,443.5313 C315.5,443.5313 315.5,456.6797 310.5,456.6797 L232.5,456.6797 C227.5,456.6797 227.5,443.5313 227.5,443.5313 C227.5,443.5313 227.5,430.3828 232.5,430.3828 " fill="#E2E2F0" style="stroke:#181818;stroke-width:0.5;"/><path d="M310.5,430.3828 C305.5,430.3828 305.5,443.5313 305.5,443.5313 C305.5,456.6797 310.5,456.6797 310.5,456.6797 " fill="none" style="stroke:#181818;stroke-width:0.5;"/><text fill="#000000" font-family="sans-serif" font-size="14" lengthAdjust="spacing" textLength="68" x="232.5" y="448.3779">Heartbeat</text><path d="M330.5,430.3828 L407.5,430.3828 C412.5,430.3828 412.5,443.5313 412.5,443.5313 C412.5,443.5313 412.5,456.6797 407.5,456.6797 L330.5,456.6797 C325.5,456.6797 325.5,443.5313 325.5,443.5313 C325.5,443.5313 325.5,430.3828 330.5,430.3828 " fill="#E2E2F0" style="stroke:#181818;stroke-width:0.5;"/><path d="M407.5,430.3828 C402.5,430.3828 402.5,443.5313 402.5,443.5313 C402.5,456.6797 407.5,456.6797 407.5,456.6797 " fill="none" style="stroke:#181818;stroke-width:0.5;"/><text fill="#000000" font-family="sans-serif" font-size="14" lengthAdjust="spacing" textLength="67" x="330.5" y="448.3779">Requests</text><path d="M427.5,430.3828 L516.5,430.3828 C521.5,430.3828 521.5,443.5313 521.5,443.5313 C521.5,443.5313 521.5,456.6797 516.5,456.6797 L427.5,456.6797 C422.5,456.6797 422.5,443.5313 422.5,443.5313 C422.5,443.5313 422.5,430.3828 427.5,430.3828 " fill="#E2E2F0" style="stroke:#181818;stroke-width:0.5;"/><path d="M516.5,430.3828 C511.5,430.3828 511.5,443.5313 511.5,443.5313 C511.5,456.6797 516.5,456.6797 516.5,456.6797 " fill="none" style="stroke:#181818;stroke-width:0.5;"/><text fill="#000000" font-family="sans-serif" font-size="14" lengthAdjust="spacing" textLength="79" x="427.5" y="448.3779">Responses</text><path d="M536.5,10 L603.5,10 C608.5,10 608.5,23.1484 608.5,23.1484 C608.5,23.1484 608.5,36.2969 603.5,36.2969 L536.5,36.2969 C531.5,36.2969 531.5,23.1484 531.5,23.1484 C531.5,23.1484 531.5,10 536.5,10 " fill="#E2E2F0" style="stroke:#181818;stroke-width:0.5;"/><path d="M603.5,10 C598.5,10 598.5,23.1484 598.5,23.1484 C598.5,36.2969 603.5,36.2969 603.5,36.2969 " fill="none" style="stroke:#181818;stroke-width:0.5;"/><text fill="#000000" font-family="sans-serif" font-size="14" lengthAdjust="spacing" textLength="57" x="536.5" y="27.9951">Workers</text><path d="M536.5,430.3828 L603.5,430.3828 C608.5,430.3828 608.5,443.5313 608.5,443.5313 C608.5,443.5313 608.5,456.6797 603.5,456.6797 L536.5,456.6797 C531.5,456.6797 531.5,443.5313 531.5,443.5313 C531.5,443.5313 531.5,430.3828 536.5,430.3828 " fill="#E2E2F0" style="stroke:#181818;stroke-width:0.5;"/><path d="M603.5,430.3828 C598.5,430.3828 598.5,443.5313 598.5,443.5313 C598.5,456.6797 603.5,456.6797 603.5,456.6797 " fill="none" style="stroke:#181818;stroke-width:0.5;"/><text fill="#000000" font-family="sans-serif" font-size="14" lengthAdjust="spacing" textLength="57" x="536.5" y="448.3779">Workers</text><path d="M10,53.2969 L141,53.2969 L141,60.4297 L131,70.4297 L10,70.4297 L10,53.2969 " fill="#EEEEEE" style="stroke:#000000;stroke-width:1.5;"/><rect fill="none" height="271.6875" style="stroke:#000000;stroke-width:1.5;" width="608.5" x="10" y="53.2969"/><text fill="#000000" font-family="sans-serif" font-size="13" font-weight="bold" lengthAdjust="spacing" textLength="86" x="25" y="66.3638">registration</text><polygon fill="#181818" points="215.5,87.5625,225.5,91.5625,215.5,95.5625,219.5,91.5625" style="stroke:#181818;stroke-width:1.0;"/><line style="stroke:#181818;stroke-width:1.0;stroke-dasharray:2.0,2.0;" x1="51.5" x2="221.5" y1="91.5625" y2="91.5625"/><text fill="#000000" font-family="sans-serif" font-size="13" lengthAdjust="spacing" textLength="152" x="58.5" y="86.4966">create heartbeat queue</text><path d="M232.5,70.4297 L310.5,70.4297 C315.5,70.4297 315.5,83.5781 315.5,83.5781 C315.5,83.5781 315.5,96.7266 310.5,96.7266 L232.5,96.7266 C227.5,96.7266 227.5,83.5781 227.5,83.5781 C227.5,83.5781 227.5,70.4297 232.5,70.4297 " fill="#E2E2F0" style="stroke:#181818;stroke-width:0.5;"/><path d="M310.5,70.4297 C305.5,70.4297 305.5,83.5781 305.5,83.5781 C305.5,96.7266 310.5,96.7266 310.5,96.7266 " fill="none" style="stroke:#181818;stroke-width:0.5;"/><text fill="#000000" font-family="sans-serif" font-size="14" lengthAdjust="spacing" textLength="68" x="232.5" y="88.4248">Heartbeat</text><polygon fill="#181818" points="62.5,123.8594,52.5,127.8594,62.5,131.8594,58.5,127.8594" style="stroke:#181818;stroke-width:1.0;"/><line style="stroke:#181818;stroke-width:1.0;stroke-dasharray:2.0,2.0;" x1="56.5" x2="270.5" y1="127.8594" y2="127.8594"/><text fill="#000000" font-family="sans-serif" font-size="13" lengthAdjust="spacing" textLength="22" x="68.5" y="122.7935">ack</text><polygon fill="#181818" points="313.5,137.8594,323.5,141.8594,313.5,145.8594,317.5,141.8594" style="stroke:#181818;stroke-width:1.0;"/><line style="stroke:#181818;stroke-width:1.0;stroke-dasharray:2.0,2.0;" x1="51.5" x2="319.5" y1="141.8594" y2="141.8594"/><path d="M330.5,135.8594 L407.5,135.8594 C412.5,135.8594 412.5,149.0078 412.5,149.0078 C412.5,149.0078 412.5,162.1563 407.5,162.1563 L330.5,162.1563 C325.5,162.1563 325.5,149.0078 325.5,149.0078 C325.5,149.0078 325.5,135.8594 330.5,135.8594 " fill="#E2E2F0" style="stroke:#181818;stroke-width:0.5;"/><path d="M407.5,135.8594 C402.5,135.8594 402.5,149.0078 402.5,149.0078 C402.5,162.1563 407.5,162.1563 407.5,162.1563 " fill="none" style="stroke:#181818;stroke-width:0.5;"/><text fill="#000000" font-family="sans-serif" font-size="14" lengthAdjust="spacing" textLength="67" x="330.5" y="153.8545">Requests</text><polygon fill="#181818" points="62.5,189.2891,52.5,193.2891,62.5,197.2891,58.5,193.2891" style="stroke:#181818;stroke-width:1.0;"/><line style="stroke:#181818;stroke-width:1.0;stroke-dasharray:2.0,2.0;" x1="56.5" x2="368" y1="193.2891" y2="193.2891"/><text fill="#000000" font-family="sans-serif" font-size="13" lengthAdjust="spacing" textLength="22" x="68.5" y="188.2231">ack</text><polygon fill="#181818" points="410.5,203.2891,420.5,207.2891,410.5,211.2891,414.5,207.2891" style="stroke:#181818;stroke-width:1.0;"/><line style="stroke:#181818;stroke-width:1.0;stroke-dasharray:2.0,2.0;" x1="51.5" x2="416.5" y1="207.2891" y2="207.2891"/><path d="M427.5,201.2891 L516.5,201.2891 C521.5,201.2891 521.5,214.4375 521.5,214.4375 C521.5,214.4375 521.5,227.5859 516.5,227.5859 L427.5,227.5859 C422.5,227.5859 422.5,214.4375 422.5,214.4375 C422.5,214.4375 422.5,201.2891 427.5,201.2891 " fill="#E2E2F0" style="stroke:#181818;stroke-width:0.5;"/><path d="M516.5,201.2891 C511.5,201.2891 511.5,214.4375 511.5,214.4375 C511.5,227.5859 516.5,227.5859 516.5,227.5859 " fill="none" style="stroke:#181818;stroke-width:0.5;"/><text fill="#000000" font-family="sans-serif" font-size="14" lengthAdjust="spacing" textLength="79" x="427.5" y="219.2842">Responses</text><polygon fill="#181818" points="62.5,254.7188,52.5,258.7188,62.5,262.7188,58.5,258.7188" style="stroke:#181818;stroke-width:1.0;"/><line style="stroke:#181818;stroke-width:1.0;stroke-dasharray:2.0,2.0;" x1="56.5" x2="471" y1="258.7188" y2="258.7188"/><text fill="#000000" font-family="sans-serif" font-size="13" lengthAdjust="spacing" textLength="22" x="68.5" y="253.6528">ack</text><polygon fill="#181818" points="558,283.8516,568,287.8516,558,291.8516,562,287.8516" style="stroke:#181818;stroke-width:1.0;"/><line style="stroke:#181818;stroke-width:1.0;stroke-dasharray:2.0,2.0;" x1="51.5" x2="564" y1="287.8516" y2="287.8516"/><text fill="#000000" font-family="sans-serif" font-size="13" lengthAdjust="spacing" textLength="163" x="58.5" y="282.7856">send registered message</text><polygon fill="#181818" points="62.5,312.9844,52.5,316.9844,62.5,320.9844,58.5,316.9844" style="stroke:#181818;stroke-width:1.0;"/><line style="stroke:#181818;stroke-width:1.0;stroke-dasharray:2.0,2.0;" x1="56.5" x2="569" y1="316.9844" y2="316.9844"/><text fill="#000000" font-family="sans-serif" font-size="13" lengthAdjust="spacing" textLength="22" x="68.5" y="311.9185">ack</text><path d="M10,338.9844 L151,338.9844 L151,346.1172 L141,356.1172 L10,356.1172 L10,338.9844 " fill="#EEEEEE" style="stroke:#000000;stroke-width:1.5;"/><rect fill="none" height="75.3984" style="stroke:#000000;stroke-width:1.5;" width="315.5" x="10" y="338.9844"/><text fill="#000000" font-family="sans-serif" font-size="13" font-weight="bold" lengthAdjust="spacing" textLength="96" x="25" y="352.0513">heartbeating</text><polygon fill="#181818" points="259.5,373.25,269.5,377.25,259.5,381.25,263.5,377.25" style="stroke:#181818;stroke-width:1.0;"/><line style="stroke:#181818;stroke-width:1.0;stroke-dasharray:2.0,2.0;" x1="51.5" x2="265.5" y1="377.25" y2="377.25"/><text fill="#000000" font-family="sans-serif" font-size="13" lengthAdjust="spacing" textLength="126" x="58.5" y="372.1841">heartbeat message</text><polygon fill="#181818" points="62.5,402.3828,52.5,406.3828,62.5,410.3828,58.5,406.3828" style="stroke:#181818;stroke-width:1.0;"/><line style="stroke:#181818;stroke-width:1.0;stroke-dasharray:2.0,2.0;" x1="56.5" x2="270.5" y1="406.3828" y2="406.3828"/><text fill="#000000" font-family="sans-serif" font-size="13" lengthAdjust="spacing" textLength="22" x="68.5" y="401.3169">ack</text><!--MD5=[8461b7542016de9129357f01384d3ca0]
@startuml worker_up

  participant Worker
  queue Heartbeat
  queue Requests
  queue Responses
  queue Workers

  group registration
    Worker - -> Heartbeat **: create heartbeat queue
    Worker <- - Heartbeat: ack
    Worker - -> Requests **
    Worker <- - Requests: ack
    Worker - -> Responses **
    Worker <- - Responses: ack
    Worker - -> Workers: send registered message
    Worker <- - Workers: ack
  end

  group heartbeating
    Worker - -> Heartbeat: heartbeat message
    Worker <- - Heartbeat: ack
  end

@enduml

PlantUML version 1.2022.7(Mon Aug 22 10:01:30 PDT 2022)
(GPL source distribution)
Java Runtime: OpenJDK Runtime Environment
JVM: OpenJDK 64-Bit Server VM
Default Encoding: UTF-8
Language: en
Country: US
--></g></svg>